<svg width="176" height="33" viewBox="0 0 176 33" fill="none" xmlns="http://www.w3.org/2000/svg">
<g clip-path="url(#clip0_639_55)">
<path opacity="0.1" fill-rule="evenodd" clip-rule="evenodd" d="M0 16.6718C0 7.8352 7.16344 0.671753 16 0.671753C24.8366 0.671753 32 7.8352 32 16.6718C32 25.5083 24.8366 32.6718 16 32.6718C7.16344 32.6718 0 25.5083 0 16.6718Z" fill="white"/>
<path fill-rule="evenodd" clip-rule="evenodd" d="M16.0008 8.13843C13.6833 8.13843 13.3924 8.14856 12.4822 8.18998C11.5737 8.23158 10.9536 8.37541 10.4111 8.58643C9.84981 8.80439 9.37372 9.09595 8.8994 9.57044C8.42473 10.0448 8.13317 10.5209 7.9145 11.0819C7.70294 11.6247 7.55894 12.245 7.51805 13.1531C7.47734 14.0633 7.46667 14.3543 7.46667 16.6718C7.46667 18.9894 7.47699 19.2793 7.51823 20.1896C7.56001 21.098 7.70383 21.7181 7.91468 22.2607C8.13282 22.822 8.42437 23.2981 8.89887 23.7724C9.37301 24.247 9.8491 24.5393 10.41 24.7573C10.9529 24.9683 11.5732 25.1121 12.4815 25.1537C13.3917 25.1951 13.6824 25.2053 15.9997 25.2053C18.3175 25.2053 18.6074 25.1951 19.5176 25.1537C20.4261 25.1121 21.0469 24.9683 21.5898 24.7573C22.1509 24.5393 22.6263 24.247 23.1004 23.7724C23.5751 23.2981 23.8667 22.822 24.0853 22.2609C24.2951 21.7181 24.4391 21.0979 24.4818 20.1898C24.5227 19.2795 24.5333 18.9894 24.5333 16.6718C24.5333 14.3543 24.5227 14.0635 24.4818 13.1532C24.4391 12.2448 24.2951 11.6247 24.0853 11.0821C23.8667 10.5209 23.5751 10.0448 23.1004 9.57044C22.6258 9.09577 22.1511 8.80421 21.5893 8.58643C21.0453 8.37541 20.4249 8.23158 19.5164 8.18998C18.6062 8.14856 18.3164 8.13843 15.9981 8.13843H16.0008ZM15.2353 9.6762C15.4625 9.67584 15.716 9.6762 16.0008 9.6762C18.2792 9.6762 18.5492 9.68438 19.449 9.72526C20.281 9.76331 20.7326 9.90233 21.0334 10.0191C21.4316 10.1738 21.7155 10.3587 22.014 10.6574C22.3127 10.956 22.4976 11.2405 22.6526 11.6387C22.7694 11.9392 22.9086 12.3907 22.9464 13.2227C22.9873 14.1223 22.9962 14.3925 22.9962 16.6699C22.9962 18.9472 22.9873 19.2175 22.9464 20.117C22.9084 20.949 22.7694 21.4006 22.6526 21.701C22.4979 22.0993 22.3127 22.3828 22.014 22.6813C21.7153 22.98 21.4318 23.1649 21.0334 23.3195C20.7329 23.4369 20.281 23.5755 19.449 23.6136C18.5494 23.6545 18.2792 23.6634 16.0008 23.6634C13.7222 23.6634 13.4521 23.6545 12.5526 23.6136C11.7205 23.5752 11.269 23.4362 10.968 23.3194C10.5698 23.1647 10.2853 22.9798 9.98666 22.6811C9.68799 22.3825 9.5031 22.0987 9.34808 21.7003C9.23128 21.3999 9.09208 20.9483 9.05421 20.1163C9.01332 19.2167 9.00514 18.9465 9.00514 16.6677C9.00514 14.389 9.01332 14.1202 9.05421 13.2206C9.09226 12.3886 9.23128 11.937 9.34808 11.6362C9.50275 11.238 9.68799 10.9535 9.98666 10.6549C10.2853 10.3562 10.5698 10.1713 10.968 10.0163C11.2688 9.89896 11.7205 9.76029 12.5526 9.72206C13.3398 9.68651 13.6448 9.67584 15.2353 9.67406V9.6762ZM20.5558 11.0931C19.9905 11.0931 19.5318 11.5512 19.5318 12.1168C19.5318 12.6821 19.9905 13.1408 20.5558 13.1408C21.1212 13.1408 21.5799 12.6821 21.5799 12.1168C21.5799 11.5514 21.1212 11.0931 20.5558 11.0931ZM16.0008 12.2896C13.5807 12.2896 11.6186 14.2517 11.6186 16.6718C11.6186 19.0919 13.5807 21.0532 16.0008 21.0532C18.4209 21.0532 20.3824 19.0919 20.3824 16.6718C20.3824 14.2517 18.4209 12.2896 16.0008 12.2896ZM16.0008 13.8274C17.5717 13.8274 18.8453 15.1008 18.8453 16.6718C18.8453 18.2427 17.5717 19.5163 16.0008 19.5163C14.4298 19.5163 13.1563 18.2427 13.1563 16.6718C13.1563 15.1008 14.4298 13.8274 16.0008 13.8274Z" fill="white"/>
<path opacity="0.1" fill-rule="evenodd" clip-rule="evenodd" d="M48 16.6718C48 7.8352 55.1634 0.671753 64 0.671753C72.8366 0.671753 80 7.8352 80 16.6718C80 25.5083 72.8366 32.6718 64 32.6718C55.1634 32.6718 48 25.5083 48 16.6718Z" fill="white"/>
<path fill-rule="evenodd" clip-rule="evenodd" d="M72.5333 16.6599C72.5333 17.237 72.4746 17.8133 72.3592 18.3751C72.2467 18.9235 72.08 19.4619 71.8617 19.9766C71.6483 20.4822 71.3837 20.9694 71.0745 21.4237C70.77 21.8752 70.4191 22.2988 70.0337 22.6849C69.6474 23.0693 69.2224 23.4192 68.7711 23.7251C68.3152 24.0322 67.8273 24.2964 67.3215 24.5107C66.806 24.7279 66.2664 24.8943 65.7184 25.0066C65.1559 25.1223 64.5776 25.1814 63.9996 25.1814C63.4213 25.1814 62.8429 25.1223 62.2812 25.0066C61.7324 24.8943 61.1928 24.7279 60.6778 24.5107C60.1719 24.2964 59.6836 24.0322 59.2277 23.7251C58.7764 23.4193 58.3514 23.0693 57.966 22.6849C57.5801 22.2988 57.2293 21.8752 56.9243 21.4237C56.6167 20.9694 56.3517 20.4821 56.1376 19.9766C55.9192 19.4619 55.7521 18.9234 55.6392 18.3751C55.525 17.8133 55.4667 17.237 55.4667 16.6599C55.4667 16.0824 55.525 15.5049 55.6392 14.9444C55.7521 14.396 55.9192 13.8567 56.1376 13.3429C56.3518 12.8369 56.6168 12.3493 56.9243 11.8949C57.2293 11.443 57.5802 11.0203 57.966 10.6337C58.3515 10.2492 58.7765 9.90015 59.2278 9.59475C59.6836 9.28641 60.172 9.02223 60.6778 8.8075C61.1929 8.58985 61.7324 8.42302 62.2812 8.31153C62.8429 8.19669 63.4213 8.13843 63.9997 8.13843C64.5776 8.13843 65.1559 8.19669 65.7185 8.31153C66.2664 8.42305 66.806 8.58988 67.3215 8.8075C67.8273 9.02219 68.3153 9.28641 68.7711 9.59475C69.2224 9.90015 69.6475 10.2492 70.0337 10.6337C70.4191 11.0203 70.77 11.443 71.0746 11.8949C71.3837 12.3493 71.6483 12.8369 71.8617 13.3429C72.08 13.8567 72.2467 14.396 72.3592 14.9444C72.4746 15.5049 72.5333 16.0824 72.5333 16.6599ZM60.8903 10.0778C58.8581 11.0361 57.3413 12.906 56.8684 15.1595C57.0605 15.1612 60.0973 15.1995 63.5962 14.2711C62.3349 12.0334 60.9874 10.2072 60.8903 10.0778ZM64.2 15.3917C60.4477 16.5134 56.8471 16.4327 56.718 16.4278C56.7159 16.506 56.7121 16.5817 56.7121 16.6599C56.7121 18.5294 57.4184 20.2337 58.5793 21.5223C58.5768 21.5186 60.5711 17.9856 64.5038 16.7157C64.5988 16.6841 64.6955 16.6558 64.7913 16.6283C64.6084 16.2147 64.4087 15.8003 64.2 15.3917ZM68.8124 11.1983C67.5293 10.0686 65.8447 9.38339 63.9996 9.38339C63.4075 9.38339 62.8329 9.45496 62.2824 9.58727C62.3916 9.73375 63.7604 11.547 65.0067 13.8322C67.7565 12.8028 68.7944 11.225 68.8124 11.1983ZM65.288 17.8341C65.2718 17.8395 65.2556 17.8441 65.2397 17.8499C60.94 19.3467 59.5358 22.3632 59.5206 22.3961C60.7578 23.3568 62.3096 23.9365 63.9996 23.9365C65.0088 23.9365 65.9701 23.7313 66.8448 23.3598C66.7368 22.724 66.3135 20.4954 65.288 17.8341ZM68.0719 22.6949C69.7082 21.5922 70.8703 19.8414 71.1945 17.8133C71.0445 17.765 69.0057 17.1205 66.6535 17.4971C67.6093 20.1201 67.9977 22.2563 68.0719 22.6949ZM65.5676 14.9165C65.7368 15.2635 65.9006 15.6167 66.0518 15.9717C66.1056 16.099 66.1581 16.2239 66.2093 16.3487C68.7128 16.0341 71.1792 16.5634 71.2846 16.585C71.2679 14.8599 70.65 13.2767 69.6275 12.0372C69.6137 12.0567 68.4449 13.7431 65.5676 14.9165Z" fill="white"/>
<path opacity="0.1" fill-rule="evenodd" clip-rule="evenodd" d="M96 16.6718C96 7.8352 103.163 0.671753 112 0.671753C120.837 0.671753 128 7.8352 128 16.6718C128 25.5083 120.837 32.6718 112 32.6718C103.163 32.6718 96 25.5083 96 16.6718Z" fill="white"/>
<path fill-rule="evenodd" clip-rule="evenodd" d="M111.521 13.6767L111.554 14.2304L110.995 14.1626C108.958 13.9027 107.178 13.0214 105.668 11.5413L104.929 10.8069L104.739 11.3492C104.336 12.5582 104.593 13.8349 105.433 14.6936C105.88 15.1682 105.779 15.2359 105.007 14.9535C104.739 14.8631 104.504 14.7953 104.481 14.8292C104.403 14.9083 104.672 15.9365 104.884 16.3432C105.175 16.9082 105.768 17.4618 106.417 17.7895L106.966 18.0493L106.317 18.0606C105.69 18.0606 105.668 18.0719 105.735 18.3092C105.959 19.0436 106.843 19.8232 107.828 20.1622L108.521 20.3995L107.917 20.761C107.022 21.2808 105.97 21.5745 104.918 21.5971C104.414 21.6084 104 21.6536 104 21.6875C104 21.8005 105.365 22.4332 106.16 22.6818C108.544 23.4162 111.375 23.0998 113.502 21.8457C115.013 20.9531 116.523 19.1792 117.229 17.4618C117.609 16.5466 117.99 14.8744 117.99 14.0722C117.99 13.5524 118.023 13.4847 118.65 12.8632C119.019 12.5017 119.366 12.1062 119.433 11.9932C119.545 11.7785 119.534 11.7785 118.963 11.9706C118.012 12.3096 117.878 12.2644 118.348 11.756C118.695 11.3944 119.109 10.7391 119.109 10.547C119.109 10.5131 118.941 10.5696 118.751 10.6713C118.549 10.7843 118.102 10.9537 117.766 11.0554L117.161 11.2475L116.613 10.8747C116.311 10.6713 115.886 10.4453 115.662 10.3775C115.091 10.2193 114.218 10.2419 113.703 10.4227C112.304 10.9311 111.42 12.2418 111.521 13.6767Z" fill="white"/>
<path opacity="0.1" fill-rule="evenodd" clip-rule="evenodd" d="M144 16.6718C144 7.8352 151.163 0.671753 160 0.671753C168.837 0.671753 176 7.8352 176 16.6718C176 25.5083 168.837 32.6718 160 32.6718C151.163 32.6718 144 25.5083 144 16.6718Z" fill="white"/>
<path fill-rule="evenodd" clip-rule="evenodd" d="M166.668 11.1714C167.402 11.3729 167.98 11.9667 168.177 12.7207C168.533 14.0872 168.533 16.9385 168.533 16.9385C168.533 16.9385 168.533 19.7897 168.177 21.1564C167.98 21.9104 167.402 22.5041 166.668 22.7057C165.337 23.0718 160 23.0718 160 23.0718C160 23.0718 154.663 23.0718 153.332 22.7057C152.598 22.5041 152.019 21.9104 151.823 21.1564C151.467 19.7897 151.467 16.9385 151.467 16.9385C151.467 16.9385 151.467 14.0872 151.823 12.7207C152.019 11.9667 152.598 11.3729 153.332 11.1714C154.663 10.8052 160 10.8052 160 10.8052C160 10.8052 165.337 10.8052 166.668 11.1714ZM158.4 14.5385V19.8718L162.667 17.2052L158.4 14.5385Z" fill="white"/>
</g>
<defs>
<clipPath id="clip0_639_55">
<rect width="176" height="32" fill="white" transform="translate(0 0.671753)"/>
</clipPath>
</defs>
</svg>
