<svg width="48" height="32" viewBox="0 0 48 32" fill="none" xmlns="http://www.w3.org/2000/svg">
<path d="M23.2958 21.5471L23.9031 21.0361C25.7081 19.5177 27.0026 17.4809 27.6109 15.2019C28.2193 12.9229 28.1121 10.5119 27.304 8.29591C26.4958 6.07988 25.0258 4.16595 23.0932 2.81361C21.1605 1.46127 18.8588 0.735931 16.5 0.735931C14.1412 0.735931 11.8394 1.46127 9.90681 2.81361C7.97418 4.16595 6.50414 6.07988 5.69599 8.29591C4.88785 10.5119 4.78068 12.9229 5.38904 15.2019C5.99739 17.4809 7.29183 19.5177 9.09686 21.0361L9.70421 21.5471L8.98113 21.8743C6.00796 23.2197 3.44947 25.3371 1.57166 28.0061L23.2958 21.5471ZM23.2958 21.5471L24.0188 21.8743M23.2958 21.5471L24.0188 21.8743M24.0188 21.8743C26.9921 23.2198 29.5507 25.3373 31.4285 28.0065L31.4357 28.0166L31.4433 28.0264C31.5892 28.2133 31.6956 28.4279 31.756 28.6571C31.8165 28.8864 31.8297 29.1255 31.7949 29.36C31.7601 29.5945 31.678 29.8195 31.5536 30.0214C31.4293 30.2232 31.2652 30.3976 31.0713 30.5341C30.8775 30.6706 30.6579 30.7663 30.426 30.8153C30.194 30.8644 29.9545 30.8658 29.722 30.8195C29.4895 30.7732 29.2688 30.6801 29.0734 30.5459C28.8779 30.4118 28.7118 30.2393 28.585 30.0389L28.5786 30.0288L28.5717 30.019C27.211 28.0809 25.4036 26.4989 23.3024 25.4068C21.2013 24.3147 18.868 23.7446 16.5 23.7446C14.1319 23.7446 11.7987 24.3147 9.69752 25.4068C7.59634 26.4989 5.789 28.0809 4.42827 30.0189L4.42716 30.0205C4.2672 30.2503 4.05392 30.4378 3.80561 30.567C3.55729 30.6962 3.28135 30.7633 3.00142 30.7625L2.99836 30.7625C2.63935 30.7637 2.28905 30.652 1.99698 30.4432L1.99458 30.4415M24.0188 21.8743L1.99458 30.4415M1.99458 30.4415C1.61601 30.1743 1.35888 29.7678 1.2796 29.3113C1.20034 28.8548 1.30529 28.3856 1.57142 28.0065L1.99458 30.4415ZM46.2901 30.4391L46.2901 30.4391C46.4786 30.3084 46.6393 30.1415 46.7628 29.9481C46.8863 29.7547 46.9701 29.5387 47.0093 29.3126C47.0486 29.0865 47.0425 28.8549 46.9915 28.6312C46.9404 28.4075 46.8454 28.1962 46.712 28.0096L46.7098 28.0065C44.832 25.3373 42.2734 23.2198 39.3001 21.8743L38.575 21.5462L39.1853 21.0353C40.9952 19.5204 42.2942 17.4845 42.9055 15.2049C43.5168 12.9252 43.4107 10.5125 42.6016 8.2953C41.7924 6.07811 40.3197 4.16414 38.3838 2.814C36.4479 1.46386 34.1429 0.743156 31.7827 0.75001L31.7804 0.750016C30.7301 0.748266 29.6846 0.893299 28.6744 1.1809L28.6654 1.18346L28.6654 1.18337C28.441 1.24275 28.2307 1.34618 28.0466 1.48762C27.8626 1.62907 27.7086 1.80571 27.5935 2.00727C27.4783 2.20882 27.4045 2.43126 27.3762 2.66164C27.3478 2.89201 27.3656 3.12572 27.4285 3.34915C27.4914 3.57259 27.5981 3.78128 27.7424 3.96308L27.3639 4.26346L27.7424 3.96308C27.8867 4.14489 28.0657 4.29617 28.269 4.40812C28.4723 4.52008 28.6959 4.59046 28.9267 4.61518C29.1575 4.63991 29.3909 4.61847 29.6133 4.55212L29.6191 4.55041L29.6191 4.55044C30.3225 4.34976 31.0506 4.24864 31.7822 4.25001M46.2901 30.4391L43.4437 30.3063L43.8524 30.0182C43.8523 30.018 43.8521 30.0178 43.852 30.0176C42.4885 28.0834 40.6807 26.5046 38.5805 25.414C36.4801 24.3232 34.1485 23.7526 31.7818 23.75H31.7812C31.3171 23.75 30.872 23.5656 30.5438 23.2374C30.2156 22.9093 30.0312 22.4641 30.0312 22C30.0312 21.5359 30.2156 21.0908 30.5438 20.7626C30.872 20.4344 31.3171 20.25 31.7812 20.25C33.903 20.25 35.9378 19.4072 37.4381 17.9069C38.9384 16.4066 39.7812 14.3717 39.7812 12.25C39.7812 10.1283 38.9384 8.09345 37.4381 6.59316C35.938 5.09309 33.9036 4.25026 31.7822 4.25001M46.2901 30.4391L46.2842 30.4432M46.2901 30.4391L46.2842 30.4432M31.7822 4.25001L31.7812 4.75001V4.25001C31.7815 4.25001 31.7819 4.25001 31.7822 4.25001ZM39.5062 21.4188L39.7124 20.9632C39.7811 20.9944 39.8497 21.0259 39.918 21.0578C39.7838 21.181 39.6465 21.3014 39.5062 21.4188ZM39.5062 21.4188L39.8272 21.8022C39.8862 21.7527 39.9448 21.7028 40.0029 21.6523C39.8386 21.5721 39.6731 21.4943 39.5062 21.4188ZM46.2842 30.4432C45.9923 30.6519 45.6423 30.7636 45.2835 30.7625L46.2842 30.4432ZM9.84823 7.80545C8.96918 9.12104 8.49998 10.6678 8.49998 12.25C8.49998 14.3717 9.34284 16.4066 10.8431 17.9069C12.3434 19.4072 14.3783 20.25 16.5 20.25C18.0822 20.25 19.629 19.7808 20.9445 18.9018C22.2601 18.0227 23.2855 16.7733 23.891 15.3115C24.4965 13.8497 24.6549 12.2411 24.3463 10.6893C24.0376 9.13744 23.2757 7.71198 22.1568 6.59316C21.038 5.47434 19.6126 4.71241 18.0607 4.40373C16.5089 4.09505 14.9003 4.25347 13.4385 4.85897C11.9767 5.46448 10.7273 6.48986 9.84823 7.80545Z" fill="#4CAF4F" stroke="#4CAF4F"/>
</svg>
